<svg height="512pt" viewBox="-45 0 511 512" width="512pt" xmlns="http://www.w3.org/2000/svg"><g fill-rule="evenodd"><path d="m139.425781 65h216.074219v382h-290v-382zm248.074219 369.109375v-356.21875c13.417969-4.898437 23-15.667969 23-32.890625s-17.777344-35-35-35-27.992188 9.582031-32.886719 23h-264.222656c-4.898437-13.417969-17.777344-23-32.890625-23-19.332031 0-35 15.667969-35 35 0 15.113281 9.582031 27.992188 23 32.886719v356.222656c-13.421875 4.898437-23 17.777344-23 32.890625 0 19.328125 15.667969 35 35 35 15.113281 0 27.992188-9.582031 32.886719-23h264.222656c4.898437 13.417969 15.667969 23 32.890625 23 17.21875 0 35-17.777344 35-35s-9.582031-27.992188-23-32.890625zm0 0" fill="#db8c60"/><path d="m128.714844 231.222656c-17.214844-56.285156-23.824219-114.660156 10.710937-166.222656h-73.925781v160.222656c15.378906 15.949219 37.335938 14.480469 63.214844 6zm0 0" fill="#ff836c"/><path d="m139.425781 65c-34.535156 51.5625-27.925781 109.9375-10.710937 166.222656 36.820312-12.066406 81.570312-38.34375 126.5625-48.875-10.15625-45.203125-15.183594-86.609375-3.3125-117.347656zm0 0" fill="#fd4848"/><path d="m251.964844 65c-11.871094 30.738281-6.84375 72.144531 3.3125 117.347656 34.414062-8.054687 68.964844-6.898437 100.222656 16.875v-134.222656zm0 0" fill="#ffd777"/><path d="m355.5 199.222656c-31.257812-23.773437-65.808594-24.929687-100.222656-16.875 8.160156 36.3125 19.632812 75.078125 28.3125 112.726563 27.5625-5.785157 52.527344-7.335938 71.910156 1.164062zm0 0" fill="#ff836c"/><path d="m283.589844 295.074219c-8.679688-37.648438-20.152344-76.414063-28.3125-112.726563-44.992188 10.527344-89.742188 36.808594-126.5625 48.875 10.238281 33.472656 24.222656 66.210938 35.539062 96.335938 39.570313-8.917969 81.851563-24.617188 119.335938-32.484375zm0 0" fill="#73ca5b"/><path d="m164.253906 327.558594c-11.316406-30.128906-25.304687-62.863282-35.539062-96.335938-25.878906 8.480469-47.835938 9.949219-63.214844-6v97.015625c26.226562 16.132813 61.273438 13.769531 98.753906 5.320313zm0 0" fill="#ffd777"/><path d="m164.253906 327.558594c-37.480468 8.449218-72.527344 10.8125-98.753906-5.320313v124.761719h104.085938c24.75-27.101562 13.347656-69.71875-5.332032-119.441406zm0 0" fill="#ff836c"/><path d="m164.253906 327.558594c18.679688 49.722656 30.082032 92.339844 5.332032 119.441406h112.539062c21.453125-39.597656 14.707031-94.464844 1.460938-151.925781-37.480469 7.867187-79.761719 23.566406-119.332032 32.484375zm0 0" fill="#fd4848"/><path d="m283.589844 295.074219c13.242187 57.460937 19.988281 112.328125-1.464844 151.925781h73.375v-150.761719c-19.382812-8.5-44.347656-6.949219-71.910156-1.164062zm0 0" fill="#ffd777"/></g><path d="m355.5 55h-290c-5.523438 0-10 4.476562-10 10v382c0 5.523438 4.476562 10 10 10h290c5.523438 0 10-4.476562 10-10v-382c0-5.523438-4.476562-10-10-10zm-79.566406 382h-88.0625c6.375-14.542969 7.542968-32.375 3.585937-53.972656-2.769531-15.105469-7.816406-31.332032-13.933593-48.355469 15.863281-3.980469 31.96875-8.777344 47.933593-13.539063 17.398438-5.1875 34.457031-10.273437 50.554688-14.128906 10.746093 49.363282 15.558593 95.832032-.078125 129.996094zm-56.195313-135.03125c-16.457031 4.90625-33.078125 9.863281-49.253906 13.84375-2.367187-6.160156-4.804687-12.402344-7.277344-18.71875-7.582031-19.363281-15.425781-39.40625-22.042969-59.683594 12.734376-4.710937 25.980469-10.597656 39.4375-16.578125 21.664063-9.632812 44.464844-19.765625 67.25-26.195312 3.71875 15.652343 7.929688 31.703125 12.203126 47.96875 3.925781 14.953125 7.878906 30.007812 11.476562 44.914062-16.671875 3.980469-34.066406 9.160157-51.792969 14.449219zm-144.238281-58.140625c6.355469 2.511719 13.179688 3.621094 20.394531 3.621094 8.285157 0 17.082031-1.460938 26.253907-3.902344 6.875 21.085937 14.910156 41.625 22.433593 60.835937 2.085938 5.332032 4.148438 10.59375 6.148438 15.78125-28.636719 5.464844-54.949219 6.269532-75.230469-3.8125zm69.398438-168.828125h93.578124c-6.671874 28.585938-2.871093 62.914062 4.988282 100.144531-24.789063 6.878907-48.929688 17.605469-70.992188 27.410157-13.023437 5.792968-25.507812 11.335937-37.132812 15.71875-13.785156-49.285157-17.632813-99.128907 9.558594-143.273438zm134.5 162.527344c-4.230469-16.101563-8.398438-31.984375-12.0625-47.386719 27.207031-4.757813 53.921874-2.441406 78.164062 14.199219v78.210937c-16.269531-3.613281-34.652344-2.636719-54.390625.855469-3.671875-15.257812-7.703125-30.621094-11.710937-45.878906zm66.101562-56.5625c-26.5625-14.113282-54.734375-15.375-82.558594-10.328125-7.753906-36.816407-11.25-70.007813-3.78125-95.636719h86.339844zm-223.5625-105.964844c-16.109375 31.277344-20.902344 66.996094-14.640625 108.625 2.046875 13.605469 5.203125 27.285156 9.027344 40.835938-16.722657 4.347656-30.773438 4.367187-40.824219-3.660157v-145.800781zm-46.4375 263.085938c11.824219 4.289062 24.660156 6.082031 38.191406 6.082031 14.097656 0 28.953125-1.945313 44.191406-5.019531 14.964844 41.117187 23.269532 75.910156 6.992188 97.851562h-89.375zm222.03125 98.914062c13.824219-37.921875 8.738281-84.980469-1.941406-134.09375 18.941406-3.28125 35.980468-3.910156 49.910156.300781v133.792969zm0 0"/><path d="m138.152344 43h.269531c5.523437 0 10-4.476562 10-10s-4.476563-10-10-10h-.269531c-5.519532 0-10 4.476562-10 10s4.476562 10 10 10zm0 0"/><path d="m273.644531 469h-195.257812c-4.199219 0-7.953125 2.625-9.394531 6.570312-3.585938 9.828126-13.027344 16.429688-23.492188 16.429688-13.785156 0-25-11.214844-25-25 0-10.464844 6.601562-19.90625 16.429688-23.496094 3.945312-1.4375 6.570312-5.191406 6.570312-9.394531v-356.21875c0-4.203125-2.625-7.957031-6.570312-9.394531-9.828126-3.589844-16.429688-13.03125-16.429688-23.496094 0-13.785156 11.214844-25 25-25 10.464844 0 19.90625 6.601562 23.492188 16.429688 1.441406 3.945312 5.195312 6.570312 9.394531 6.570312h31.035156c5.523437 0 10-4.476562 10-10s-4.476563-10-10-10h-24.664063c-7.867187-13.996094-22.863281-23-39.257812-23-24.8125 0-45 20.1875-45 45 0 16.394531 9.003906 31.390625 23 39.257812v343.480469c-13.996094 7.871094-23 22.867188-23 39.261719 0 24.8125 20.1875 45 45 45 16.394531 0 31.390625-9.003906 39.257812-23h188.886719c5.523438 0 10-4.476562 10-10s-4.476562-10-10-10zm0 0"/><path d="m302.644531 469h-.269531c-5.519531 0-10 4.476562-10 10s4.480469 10 10 10h.269531c5.523438 0 10-4.476562 10-10s-4.476562-10-10-10zm0 0"/><path d="m397.5 427.632812v-343.265624c14.710938-7.808594 23-21.820313 23-39.367188 0-22.710938-22.289062-45-45-45-17.550781 0-31.558594 8.289062-39.367188 23h-157.746093c-5.519531 0-10 4.476562-10 10s4.480469 10 10 10h164.226562c4.199219 0 7.953125-2.625 9.390625-6.570312 3.980469-10.902344 11.882813-16.429688 23.496094-16.429688 11.683594 0 25 13.316406 25 25 0 11.609375-5.527344 19.515625-16.429688 23.496094-3.945312 1.4375-6.570312 5.191406-6.570312 9.394531v356.222656c0 4.199219 2.625 7.953125 6.570312 9.394531 10.902344 3.976563 16.429688 11.882813 16.429688 23.492188 0 11.683594-13.316406 25-25 25-11.613281 0-19.515625-5.527344-23.496094-16.429688-1.890625-5.1875-7.632812-7.855468-12.820312-5.964843-5.1875 1.894531-7.859375 7.632812-5.964844 12.824219 6.855469 18.792968 22.269531 29.570312 42.28125 29.570312 22.710938 0 45-22.289062 45-45 0-17.546875-8.289062-31.558594-23-39.367188zm0 0"/></svg>