<?xml version="1.0" encoding="iso-8859-1"?>
<!-- Generator: Adobe Illustrator 19.0.0, SVG Export Plug-In . SVG Version: 6.00 Build 0)  -->
<svg version="1.1" id="Layer_1" xmlns="http://www.w3.org/2000/svg" xmlns:xlink="http://www.w3.org/1999/xlink" x="0px" y="0px"
	 viewBox="0 0 512.018 512.018" style="enable-background:new 0 0 512.018 512.018;" xml:space="preserve">
<path style="fill:#FFD580;" d="M495.684,348.737c-0.96-36.16-22.08-67.52-52.8-82.56c-12.8-6.4-27.52-10.24-42.88-10.24
	c-51.52,0-93.44,40.32-95.68,91.2l-0.32,4.8l0.32,3.2c1.28,51.52,43.52,92.8,95.68,92.8c53.12,0,96-42.88,96-96L495.684,348.737z"/>
<path style="fill:#99DDFF;" d="M256.004,127.937c44.16,0,80,35.84,80,80s-35.84,80-80,80s-80-35.84-80-80
	S211.844,127.937,256.004,127.937z M288.004,207.937c0-17.6-14.4-32-32-32s-32,14.4-32,32s14.4,32,32,32
	S288.004,225.537,288.004,207.937z"/>
<g>
	<circle style="fill:#664848;" cx="256.004" cy="207.937" r="32"/>
	<path style="fill:#664848;" d="M511.604,351.937h-0.032c-1.264-32-17.84-66.464-43.152-85.952
		c25.328-25.136,40.112-46.224,40.464-46.704c4.192-5.68,4.176-13.984-0.032-19.648c-0.496-0.624-27.984-37.936-72.928-75.376
		c-44.928-37.264-107.664-75.984-179.92-76.176c-72.272,0.192-134.992,38.672-179.92,75.952c-44.944,37.44-72.432,74.4-72.928,75.04
		c-4.208,5.664-4.208,13.408,0,19.072c0.496,0.624,27.984,37.616,72.928,75.056c44.928,37.264,107.648,74.544,179.92,74.736
		c11.216,0,22.304,0.224,33.136-1.52c6.768,55.056,53.792,97.536,110.864,97.52c30.912,0.016,59.024-12.528,79.232-32.768
		c20.24-20.224,32.768-48.336,32.768-79.232l-0.08,0.8L511.604,351.937z M289.716,333.585c-11.088,2.144-22.4,3.632-33.712,3.632
		c-60.208,0.192-117.488-33.568-159.44-68.624c-20.96-17.44-38.032-34.992-49.776-48.096c-4.224-4.72-7.488-8.576-10.288-11.936
		c11.536-13.872,35.616-40.848,68.08-66.544c41.12-32.656,94.96-62.24,151.424-62.08c60.208-0.192,117.488,33.568,159.44,68.624
		c20.96,17.44,38.032,34.992,49.776,48.096c4.24,4.736,7.52,8.592,10.304,11.952c-7.328,8.832-19.744,22.928-36.192,38.624
		c-12.176-4.608-25.456-7.296-39.328-7.296c-23.424,0-45.12,7.232-63.088,19.504c9.504-14.896,15.088-32.528,15.088-51.504
		c-0.016-53.008-42.992-95.984-96-96c-53.008,0.016-95.984,42.992-96,96c0.016,53.008,42.992,95.984,96,96
		c18.992,0,36.656-5.6,51.552-15.12C298.58,301.985,292.356,317.153,289.716,333.585z M256.004,271.937
		c-35.312-0.064-63.936-28.688-64-64c0.064-35.312,28.688-63.936,64-64c35.312,0.064,63.936,28.688,64,64
		C319.94,243.233,291.316,271.873,256.004,271.937z M400.004,431.937c-43.536-0.016-78.624-34.384-79.68-77.2l-0.08-1.2
		l-0.192-1.872l0.224-3.472l0.016-0.368c1.872-42.32,36.704-75.904,79.696-75.904c12.688,0,25.008,3.184,35.728,8.544l0.128,0.064
		c25.456,12.464,43.056,38.512,43.84,68.608l0.08,1.168l0.208,2C479.732,396.449,444.164,431.921,400.004,431.937z"/>
	<path style="fill:#664848;" d="M448.004,335.937h-96c-8.832,0-16,7.168-16,16s7.168,16,16,16h96c8.832,0,16-7.168,16-16
		C464.004,343.089,456.836,335.937,448.004,335.937z"/>
</g>
<g>
</g>
<g>
</g>
<g>
</g>
<g>
</g>
<g>
</g>
<g>
</g>
<g>
</g>
<g>
</g>
<g>
</g>
<g>
</g>
<g>
</g>
<g>
</g>
<g>
</g>
<g>
</g>
<g>
</g>
</svg>
