<svg height="480.08591pt" viewBox="0 0 480.08591 480.08591" width="480.08591pt" xmlns="http://www.w3.org/2000/svg"><path d="m109.964844 109.964844c-61.988282 62.050781-71.515625 159.242187-22.761719 232.152344 48.757813 72.90625 142.222656 101.226562 223.242187 67.640624 81.023438-33.585937 127.042969-119.722656 109.921876-205.742187-17.121094-86.023437-92.617188-147.972656-180.324219-147.972656-48.800781-.015625-95.601563 19.382812-130.078125 53.921875zm226.078125 186.078125-96 67.921875-96-67.921875v-112l96-67.921875 96 67.921875zm0 0" fill="#f1f2f2"/><path d="m370.121094 109.964844c34.523437 34.484375 53.921875 81.28125 53.921875 130.078125s-19.398438 95.59375-53.921875 130.078125l34 34c90.5625-90.640625 90.5625-237.515625 0-328.15625zm0 0" fill="#ffcd00"/><path d="m56.042969 240.042969c-.015625-48.800781 19.382812-95.601563 53.921875-130.078125l-34-34c-90.5625 90.640625-90.5625 237.515625 0 328.15625l34-34c-34.539063-34.476563-53.9375-81.277344-53.921875-130.078125zm0 0" fill="#ffcd00"/><path d="m240.042969 424.042969c-48.800781.015625-95.601563-19.382813-130.078125-53.921875l-34 34c90.640625 90.5625 237.515625 90.5625 328.15625 0l-34-34c-34.476563 34.539062-81.277344 53.9375-130.078125 53.921875zm0 0" fill="#ff9811"/><path d="m240.042969 56.042969c48.800781-.015625 95.601562 19.382812 130.078125 53.921875l34-34c-90.640625-90.5625-237.515625-90.5625-328.15625 0l34 34c34.476562-34.539063 81.277344-53.9375 130.078125-53.921875zm0 0" fill="#ff9811"/><path d="m144.042969 184.042969 96 67.921875 96-67.921875-96-67.921875zm0 0" fill="#ff3051"/><path d="m223.164062 240.042969-79.121093-56v112l96 67.921875v-112zm0 0" fill="#2b3990"/><path d="m240.042969 251.964844v112l96-67.921875v-112l-79.121094 56zm0 0" fill="#7ed63e"/><path d="m256.921875 240.042969 79.121094-56-96 67.921875zm0 0" fill="#ffcd00"/><path d="m240.042969 251.964844-96-67.921875 79.121093 56zm0 0" fill="#ffcd00"/><path d="m409.777344 70.308594c-93.742188-93.746094-245.726563-93.746094-339.46875 0-93.746094 93.742187-93.746094 245.726562 0 339.46875 93.742187 93.746094 245.726562 93.746094 339.46875 0 93.746094-93.742188 93.746094-245.726563 0-339.46875zm-5.789063 322.398437-22.699219-22.6875c67.667969-73.410156 67.667969-186.464843 0-259.871093l22.699219-22.691407c80.054688 86.003907 80.054688 219.246094 0 305.25zm-163.945312 23.335938c-84.015625.042969-156.359375-59.273438-172.78125-141.667969s27.652343-164.914062 105.261719-197.085938c77.613281-32.171874 167.140624-5.03125 213.828124 64.816407 46.6875 69.851562 37.523438 162.953125-21.882812 222.363281-32.941406 33.089844-77.734375 51.660156-124.425781 51.574219zm152.625-339.945313-22.6875 22.699219c-73.410157-67.667969-186.464844-67.667969-259.875 0l-22.6875-22.699219c86.003906-80.054687 219.246093-80.054687 305.25 0zm-316.570313 11.320313 22.699219 22.6875c-67.667969 73.410156-67.667969 186.464843 0 259.875l-22.699219 22.6875c-80.054687-86.003907-80.054687-219.246094 0-305.25zm11.320313 316.570312 22.6875-22.699219c73.410156 67.667969 186.464843 67.667969 259.875 0l22.6875 22.699219c-86.003907 80.054688-219.246094 80.054688-305.25 0zm0 0"/><path d="m343.515625 181.347656c-.214844-.683594-.546875-1.328125-.984375-1.898437-.238281-.335938-.507812-.65625-.800781-.949219-.191407-.199219-.394531-.386719-.609375-.5625-.167969-.132812-.292969-.300781-.46875-.421875l-96-67.929687c-2.773438-1.960938-6.480469-1.960938-9.25 0l-96 67.929687c-.175782.121094-.304688.289063-.472656.421875-.167969.136719-.414063.363281-.613282.5625-.292968.292969-.5625.613281-.800781.949219-.167969.214843-.320313.441406-.457031.671875-.214844.390625-.394532.796875-.535156 1.21875-.082032.222656-.183594.429687-.25.65625-.164063.667968-.242188 1.355468-.230469 2.046875v112c0 2.59375 1.257812 5.027343 3.375 6.527343l96 67.929688c.320312.179688.648437.339844.984375.480469.273437.160156.554687.300781.847656.421875 1.792969.75 3.808594.75 5.601562 0 .292969-.121094.574219-.261719.847657-.421875.335937-.140625.664062-.300781.984375-.480469l96-67.929688c2.109375-1.503906 3.363281-3.9375 3.359375-6.527343v-112c-.003907-.691407-.097657-1.378907-.28125-2.046875-.0625-.226563-.167969-.433594-.246094-.648438zm-103.472656-55.433594 82.152343 58.128907-82.152343 58.128906-82.152344-58.128906zm-88 73.601563 80 56.597656v92.402344l-80-56.617187zm176 92.382813-80 56.609374v-92.402343l80-56.597657zm0 0"/></svg>